<svg width="50" height="50" viewBox="0 0 50 50" fill="none" xmlns="http://www.w3.org/2000/svg">
<path d="M37.1876 32L43.3062 8.0423H50V4.27649H40.3813L38.9389 9.9241L0 9.89625L4.13979 31.9999H37.1876V32ZM37.9774 13.6893L34.2627 28.2342H7.26574L4.53714 13.6653L37.9774 13.6893Z" fill="white"/>
<path d="M32.0326 45.7237C35.3532 45.7237 38.0547 43.0221 38.0547 39.7015C38.0547 36.3809 35.3532 33.6794 32.0326 33.6794H9.34349C6.02287 33.6794 3.32129 36.3809 3.32129 39.7015C3.32129 43.0221 6.02282 45.7237 9.34349 45.7237C12.6642 45.7237 15.3656 43.0221 15.3656 39.7015C15.3656 38.9041 15.2094 38.1425 14.9266 37.4453H26.4494C26.1666 38.1425 26.0104 38.9041 26.0104 39.7015C26.0104 43.0221 28.712 45.7237 32.0326 45.7237ZM11.5998 39.7015C11.5998 40.9457 10.5876 41.9579 9.34349 41.9579C8.09933 41.9579 7.0871 40.9457 7.0871 39.7015C7.0871 38.4574 8.09928 37.4453 9.34349 37.4453C10.5876 37.4453 11.5998 38.4574 11.5998 39.7015ZM34.289 39.7015C34.289 40.9457 33.2768 41.9579 32.0326 41.9579C30.7885 41.9579 29.7763 40.9457 29.7763 39.7015C29.7763 38.4574 30.7885 37.4453 32.0326 37.4453C33.2768 37.4453 34.289 38.4574 34.289 39.7015Z" fill="white"/>
</svg>
